<?xml version="1.0" encoding="UTF-8" standalone="no"?>
<svg xmlns="http://www.w3.org/2000/svg" width="32" height="32" viewBox="0 0 32 32">
  <defs>
    <linearGradient id="orangeGradient" x1="0%" y1="0%" x2="100%" y2="100%">
      <stop offset="0%" style="stop-color:#FF8C00;stop-opacity:1" />
      <stop offset="100%" style="stop-color:#FF5E00;stop-opacity:1" />
    </linearGradient>
  </defs>
  
  <!-- Background Circle -->
  <circle cx="16" cy="16" r="16" fill="white" />
  
  <!-- Main Circle -->
  <circle cx="16" cy="16" r="14" fill="#f8f9fa" stroke="#0066CC" stroke-width="1.5" />
  
  <!-- Food Icon -->
  <path d="M10 16c0-3.3 2.7-6 6-6s6 2.7 6 6-2.7 6-6 6-6-2.7-6-6zm9-1.5c.8 0 1.5.7 1.5 1.5s-.7 1.5-1.5 1.5-1.5-.7-1.5-1.5.7-1.5 1.5-1.5zm-6 0c.8 0 1.5.7 1.5 1.5s-.7 1.5-1.5 1.5-1.5-.7-1.5-1.5.7-1.5 1.5-1.5zm3 4.5c1.7 0 3-1.3 3-3h-6c0 1.7 1.3 3 3 3z" fill="url(#orangeGradient)" />
  
  <!-- Letter S -->
  <text x="10" y="24" font-family="Arial, sans-serif" font-weight="bold" font-size="14" fill="#0066CC">S</text>
</svg> 