<?xml version="1.0" encoding="UTF-8" standalone="no"?>
<svg xmlns="http://www.w3.org/2000/svg" width="300" height="200" viewBox="0 0 300 200">
  <rect width="300" height="200" fill="#f8f9fa" />
  <g transform="translate(125, 75)">
    <path d="M22.8-20c0 11-9 20-20 20 -11 0-20-9-20-20 0-11 9-20 20-20s20 9 20 20z M-3.8-10.1c0 1.1-0.9 2-2 2s-2-0.9-2-2 0.9-2 2-2 2 0.9 2 2z M16.2-10.1c0 1.1-0.9 2-2 2s-2-0.9-2-2 0.9-2 2-2 2 0.9 2 2z M11.8 0.1c-2.2 2.7-5.6 4-9.6 4 -4 0-7.4-1.3-9.6-4l1.6-1.6c1.8 2.1 4.4 3.1 8 3.1 3.6 0 6.2-1 8-3.1L11.8 0.1z" 
          fill="#0066cc" />
  </g>
  <text x="150" y="125" font-family="Arial, sans-serif" font-size="16" text-anchor="middle" fill="#495057">Food Image</text>
</svg> 